<?xml version="1.0" encoding="UTF-8" standalone="no"?>
<svg
   xmlns:dc="http://purl.org/dc/elements/1.1/"
   xmlns:cc="http://creativecommons.org/ns#"
   xmlns:rdf="http://www.w3.org/1999/02/22-rdf-syntax-ns#"
   xmlns:svg="http://www.w3.org/2000/svg"
   xmlns="http://www.w3.org/2000/svg"
   viewBox="0 0 746.66669 746.66669"
   height="746.66669"
   width="746.66669"
   xml:space="preserve"
   id="svg2"
   version="1.1"><metadata
     id="metadata8"><rdf:RDF><cc:Work
         rdf:about=""><dc:format>image/svg+xml</dc:format><dc:type
           rdf:resource="http://purl.org/dc/dcmitype/StillImage" /></cc:Work></rdf:RDF></metadata><defs
     id="defs6"><clipPath
       id="clipPath54"
       clipPathUnits="userSpaceOnUse"><path
         id="path52"
         d="M 0,6.66 H 560 V 553.34 H 0 Z" /></clipPath><clipPath
       id="clipPath66"
       clipPathUnits="userSpaceOnUse"><path
         id="path64"
         d="M 53.29,46.63 H 554.52 V 547.86 H 53.29 Z" /></clipPath></defs><g
     transform="matrix(1.3333333,0,0,-1.3333333,0,746.66667)"
     id="g10"><g
       id="g12" /><g
       id="g14" /><g
       id="g16" /><g
       id="g18" /><g
       id="g20" /><g
       id="g22" /><g
       id="g24" /><g
       id="g26" /><g
       id="g28" /><g
       id="g30" /><g
       id="g32" /><g
       id="g34" /><g
       id="g36" /><g
       id="g38" /><g
       id="g40" /><g
       id="g42" /><g
       id="g44" /><g
       id="g46" /><g
       id="g48"><g
         clip-path="url(#clipPath54)"
         id="g50"><path
           id="path56"
           style="fill:#ffffff;fill-opacity:1;fill-rule:nonzero;stroke:#ffffff;stroke-width:1.07000005;stroke-linecap:round;stroke-linejoin:round;stroke-miterlimit:10;stroke-dasharray:none;stroke-opacity:1"
           d="M 0,6.66 H 560 V 553.34 H 0 Z" /></g></g><g
       id="g58" /><g
       id="g60"><g
         clip-path="url(#clipPath66)"
         id="g62"><path
           id="path68"
           style="fill:#ffffff;fill-opacity:1;fill-rule:nonzero;stroke:none"
           d="M 53.29,46.63 H 554.52 V 547.86 H 53.29 Z" /><path
           id="path70"
           style="fill:none;stroke:#ebebeb;stroke-width:0.52999997;stroke-linecap:butt;stroke-linejoin:round;stroke-miterlimit:10;stroke-dasharray:none;stroke-opacity:1"
           d="M 53.29,73.97 H 554.52" /><path
           id="path72"
           style="fill:none;stroke:#ebebeb;stroke-width:0.52999997;stroke-linecap:butt;stroke-linejoin:round;stroke-miterlimit:10;stroke-dasharray:none;stroke-opacity:1"
           d="M 53.29,78.53 H 554.52" /><path
           id="path74"
           style="fill:none;stroke:#ebebeb;stroke-width:0.52999997;stroke-linecap:butt;stroke-linejoin:round;stroke-miterlimit:10;stroke-dasharray:none;stroke-opacity:1"
           d="M 53.29,83.09 H 554.52" /><path
           id="path76"
           style="fill:none;stroke:#ebebeb;stroke-width:0.52999997;stroke-linecap:butt;stroke-linejoin:round;stroke-miterlimit:10;stroke-dasharray:none;stroke-opacity:1"
           d="M 53.29,87.64 H 554.52" /><path
           id="path78"
           style="fill:none;stroke:#ebebeb;stroke-width:0.52999997;stroke-linecap:butt;stroke-linejoin:round;stroke-miterlimit:10;stroke-dasharray:none;stroke-opacity:1"
           d="M 53.29,92.2 H 554.52" /><path
           id="path80"
           style="fill:none;stroke:#ebebeb;stroke-width:0.52999997;stroke-linecap:butt;stroke-linejoin:round;stroke-miterlimit:10;stroke-dasharray:none;stroke-opacity:1"
           d="M 53.29,96.76 H 554.52" /><path
           id="path82"
           style="fill:none;stroke:#ebebeb;stroke-width:0.52999997;stroke-linecap:butt;stroke-linejoin:round;stroke-miterlimit:10;stroke-dasharray:none;stroke-opacity:1"
           d="M 53.29,101.31 H 554.52" /><path
           id="path84"
           style="fill:none;stroke:#ebebeb;stroke-width:0.52999997;stroke-linecap:butt;stroke-linejoin:round;stroke-miterlimit:10;stroke-dasharray:none;stroke-opacity:1"
           d="M 53.29,105.87 H 554.52" /><path
           id="path86"
           style="fill:none;stroke:#ebebeb;stroke-width:0.52999997;stroke-linecap:butt;stroke-linejoin:round;stroke-miterlimit:10;stroke-dasharray:none;stroke-opacity:1"
           d="M 53.29,110.43 H 554.52" /><path
           id="path88"
           style="fill:none;stroke:#ebebeb;stroke-width:0.52999997;stroke-linecap:butt;stroke-linejoin:round;stroke-miterlimit:10;stroke-dasharray:none;stroke-opacity:1"
           d="M 53.29,484.07 H 554.52" /><path
           id="path90"
           style="fill:none;stroke:#ebebeb;stroke-width:0.52999997;stroke-linecap:butt;stroke-linejoin:round;stroke-miterlimit:10;stroke-dasharray:none;stroke-opacity:1"
           d="M 53.29,488.62 H 554.52" /><path
           id="path92"
           style="fill:none;stroke:#ebebeb;stroke-width:0.52999997;stroke-linecap:butt;stroke-linejoin:round;stroke-miterlimit:10;stroke-dasharray:none;stroke-opacity:1"
           d="M 53.29,493.18 H 554.52" /><path
           id="path94"
           style="fill:none;stroke:#ebebeb;stroke-width:0.52999997;stroke-linecap:butt;stroke-linejoin:round;stroke-miterlimit:10;stroke-dasharray:none;stroke-opacity:1"
           d="M 53.29,497.74 H 554.52" /><path
           id="path96"
           style="fill:none;stroke:#ebebeb;stroke-width:0.52999997;stroke-linecap:butt;stroke-linejoin:round;stroke-miterlimit:10;stroke-dasharray:none;stroke-opacity:1"
           d="M 53.29,502.29 H 554.52" /><path
           id="path98"
           style="fill:none;stroke:#ebebeb;stroke-width:0.52999997;stroke-linecap:butt;stroke-linejoin:round;stroke-miterlimit:10;stroke-dasharray:none;stroke-opacity:1"
           d="M 53.29,506.85 H 554.52" /><path
           id="path100"
           style="fill:none;stroke:#ebebeb;stroke-width:0.52999997;stroke-linecap:butt;stroke-linejoin:round;stroke-miterlimit:10;stroke-dasharray:none;stroke-opacity:1"
           d="M 53.29,511.41 H 554.52" /><path
           id="path102"
           style="fill:none;stroke:#ebebeb;stroke-width:0.52999997;stroke-linecap:butt;stroke-linejoin:round;stroke-miterlimit:10;stroke-dasharray:none;stroke-opacity:1"
           d="M 53.29,515.96 H 554.52" /><path
           id="path104"
           style="fill:none;stroke:#ebebeb;stroke-width:0.52999997;stroke-linecap:butt;stroke-linejoin:round;stroke-miterlimit:10;stroke-dasharray:none;stroke-opacity:1"
           d="M 53.29,520.52 H 554.52" /><path
           id="path106"
           style="fill:none;stroke:#ebebeb;stroke-width:0.52999997;stroke-linecap:butt;stroke-linejoin:round;stroke-miterlimit:10;stroke-dasharray:none;stroke-opacity:1"
           d="M 80.63,46.63 V 547.86" /><path
           id="path108"
           style="fill:none;stroke:#ebebeb;stroke-width:0.52999997;stroke-linecap:butt;stroke-linejoin:round;stroke-miterlimit:10;stroke-dasharray:none;stroke-opacity:1"
           d="M 85.19,46.63 V 547.86" /><path
           id="path110"
           style="fill:none;stroke:#ebebeb;stroke-width:0.52999997;stroke-linecap:butt;stroke-linejoin:round;stroke-miterlimit:10;stroke-dasharray:none;stroke-opacity:1"
           d="M 89.75,46.63 V 547.86" /><path
           id="path112"
           style="fill:none;stroke:#ebebeb;stroke-width:0.52999997;stroke-linecap:butt;stroke-linejoin:round;stroke-miterlimit:10;stroke-dasharray:none;stroke-opacity:1"
           d="M 94.3,46.63 V 547.86" /><path
           id="path114"
           style="fill:none;stroke:#ebebeb;stroke-width:0.52999997;stroke-linecap:butt;stroke-linejoin:round;stroke-miterlimit:10;stroke-dasharray:none;stroke-opacity:1"
           d="M 98.86,46.63 V 547.86" /><path
           id="path116"
           style="fill:none;stroke:#ebebeb;stroke-width:0.52999997;stroke-linecap:butt;stroke-linejoin:round;stroke-miterlimit:10;stroke-dasharray:none;stroke-opacity:1"
           d="M 103.42,46.63 V 547.86" /><path
           id="path118"
           style="fill:none;stroke:#ebebeb;stroke-width:0.52999997;stroke-linecap:butt;stroke-linejoin:round;stroke-miterlimit:10;stroke-dasharray:none;stroke-opacity:1"
           d="M 107.97,46.63 V 547.86" /><path
           id="path120"
           style="fill:none;stroke:#ebebeb;stroke-width:0.52999997;stroke-linecap:butt;stroke-linejoin:round;stroke-miterlimit:10;stroke-dasharray:none;stroke-opacity:1"
           d="M 112.53,46.63 V 547.86" /><path
           id="path122"
           style="fill:none;stroke:#ebebeb;stroke-width:0.52999997;stroke-linecap:butt;stroke-linejoin:round;stroke-miterlimit:10;stroke-dasharray:none;stroke-opacity:1"
           d="M 117.09,46.63 V 547.86" /><path
           id="path124"
           style="fill:none;stroke:#ebebeb;stroke-width:0.52999997;stroke-linecap:butt;stroke-linejoin:round;stroke-miterlimit:10;stroke-dasharray:none;stroke-opacity:1"
           d="M 490.73,46.63 V 547.86" /><path
           id="path126"
           style="fill:none;stroke:#ebebeb;stroke-width:0.52999997;stroke-linecap:butt;stroke-linejoin:round;stroke-miterlimit:10;stroke-dasharray:none;stroke-opacity:1"
           d="M 495.28,46.63 V 547.86" /><path
           id="path128"
           style="fill:none;stroke:#ebebeb;stroke-width:0.52999997;stroke-linecap:butt;stroke-linejoin:round;stroke-miterlimit:10;stroke-dasharray:none;stroke-opacity:1"
           d="M 499.84,46.63 V 547.86" /><path
           id="path130"
           style="fill:none;stroke:#ebebeb;stroke-width:0.52999997;stroke-linecap:butt;stroke-linejoin:round;stroke-miterlimit:10;stroke-dasharray:none;stroke-opacity:1"
           d="M 504.4,46.63 V 547.86" /><path
           id="path132"
           style="fill:none;stroke:#ebebeb;stroke-width:0.52999997;stroke-linecap:butt;stroke-linejoin:round;stroke-miterlimit:10;stroke-dasharray:none;stroke-opacity:1"
           d="M 508.95,46.63 V 547.86" /><path
           id="path134"
           style="fill:none;stroke:#ebebeb;stroke-width:0.52999997;stroke-linecap:butt;stroke-linejoin:round;stroke-miterlimit:10;stroke-dasharray:none;stroke-opacity:1"
           d="M 513.51,46.63 V 547.86" /><path
           id="path136"
           style="fill:none;stroke:#ebebeb;stroke-width:0.52999997;stroke-linecap:butt;stroke-linejoin:round;stroke-miterlimit:10;stroke-dasharray:none;stroke-opacity:1"
           d="M 518.07,46.63 V 547.86" /><path
           id="path138"
           style="fill:none;stroke:#ebebeb;stroke-width:0.52999997;stroke-linecap:butt;stroke-linejoin:round;stroke-miterlimit:10;stroke-dasharray:none;stroke-opacity:1"
           d="M 522.62,46.63 V 547.86" /><path
           id="path140"
           style="fill:none;stroke:#ebebeb;stroke-width:0.52999997;stroke-linecap:butt;stroke-linejoin:round;stroke-miterlimit:10;stroke-dasharray:none;stroke-opacity:1"
           d="M 527.18,46.63 V 547.86" /><path
           id="path142"
           style="fill:none;stroke:#ebebeb;stroke-width:1.07000005;stroke-linecap:butt;stroke-linejoin:round;stroke-miterlimit:10;stroke-dasharray:none;stroke-opacity:1"
           d="M 53.29,69.42 H 554.52" /><path
           id="path144"
           style="fill:none;stroke:#ebebeb;stroke-width:1.07000005;stroke-linecap:butt;stroke-linejoin:round;stroke-miterlimit:10;stroke-dasharray:none;stroke-opacity:1"
           d="M 53.29,114.98 H 554.52" /><path
           id="path146"
           style="fill:none;stroke:#ebebeb;stroke-width:1.07000005;stroke-linecap:butt;stroke-linejoin:round;stroke-miterlimit:10;stroke-dasharray:none;stroke-opacity:1"
           d="M 53.29,183.33 H 554.52" /><path
           id="path148"
           style="fill:none;stroke:#ebebeb;stroke-width:1.07000005;stroke-linecap:butt;stroke-linejoin:round;stroke-miterlimit:10;stroke-dasharray:none;stroke-opacity:1"
           d="M 53.29,297.25 H 554.52" /><path
           id="path150"
           style="fill:none;stroke:#ebebeb;stroke-width:1.07000005;stroke-linecap:butt;stroke-linejoin:round;stroke-miterlimit:10;stroke-dasharray:none;stroke-opacity:1"
           d="M 53.29,411.16 H 554.52" /><path
           id="path152"
           style="fill:none;stroke:#ebebeb;stroke-width:1.07000005;stroke-linecap:butt;stroke-linejoin:round;stroke-miterlimit:10;stroke-dasharray:none;stroke-opacity:1"
           d="M 53.29,479.51 H 554.52" /><path
           id="path154"
           style="fill:none;stroke:#ebebeb;stroke-width:1.07000005;stroke-linecap:butt;stroke-linejoin:round;stroke-miterlimit:10;stroke-dasharray:none;stroke-opacity:1"
           d="M 53.29,525.08 H 554.52" /><path
           id="path156"
           style="fill:none;stroke:#ebebeb;stroke-width:1.07000005;stroke-linecap:butt;stroke-linejoin:round;stroke-miterlimit:10;stroke-dasharray:none;stroke-opacity:1"
           d="M 76.08,46.63 V 547.86" /><path
           id="path158"
           style="fill:none;stroke:#ebebeb;stroke-width:1.07000005;stroke-linecap:butt;stroke-linejoin:round;stroke-miterlimit:10;stroke-dasharray:none;stroke-opacity:1"
           d="M 121.64,46.63 V 547.86" /><path
           id="path160"
           style="fill:none;stroke:#ebebeb;stroke-width:1.07000005;stroke-linecap:butt;stroke-linejoin:round;stroke-miterlimit:10;stroke-dasharray:none;stroke-opacity:1"
           d="M 189.99,46.63 V 547.86" /><path
           id="path162"
           style="fill:none;stroke:#ebebeb;stroke-width:1.07000005;stroke-linecap:butt;stroke-linejoin:round;stroke-miterlimit:10;stroke-dasharray:none;stroke-opacity:1"
           d="M 303.91,46.63 V 547.86" /><path
           id="path164"
           style="fill:none;stroke:#ebebeb;stroke-width:1.07000005;stroke-linecap:butt;stroke-linejoin:round;stroke-miterlimit:10;stroke-dasharray:none;stroke-opacity:1"
           d="M 417.82,46.63 V 547.86" /><path
           id="path166"
           style="fill:none;stroke:#ebebeb;stroke-width:1.07000005;stroke-linecap:butt;stroke-linejoin:round;stroke-miterlimit:10;stroke-dasharray:none;stroke-opacity:1"
           d="M 486.17,46.63 V 547.86" /><path
           id="path168"
           style="fill:none;stroke:#ebebeb;stroke-width:1.07000005;stroke-linecap:butt;stroke-linejoin:round;stroke-miterlimit:10;stroke-dasharray:none;stroke-opacity:1"
           d="M 531.74,46.63 V 547.86" /><path
           id="path170"
           style="fill:none;stroke:#ffffff;stroke-width:1.07000005;stroke-linecap:butt;stroke-linejoin:round;stroke-miterlimit:10;stroke-dasharray:none;stroke-opacity:1"
           d="M 53.29,46.63 554.52,547.86" /><path
           id="path172"
           style="fill:none;stroke:#b79f00;stroke-width:4.26999998;stroke-linecap:butt;stroke-linejoin:round;stroke-miterlimit:1;stroke-dasharray:none;stroke-opacity:1"
           d="m 76.08,69.42 v 0.47 1.44 l 0.2,0.95 v 1.43 1.44 1.43 1.43 l 0.42,0.96 0.21,0.95 v 1.44 l 0.2,0.95 0.42,0.48 0.2,0.95 v 1.92 1.43 l 0.21,0.95 v 1.44 l 0.41,0.47 v 1.44 l 0.21,0.95 v 1.91 l 0.21,0.96 v 1.43 l 0.21,0.96 v 1.43 l 0.2,0.95 v 1.91 l 0.42,0.48 v 1.44 1.43 l 0.2,0.95 v 1.44 l 0.21,1.43 v 1.43 l 0.42,0.48 v 1.43 l 0.2,0.96 v 1.43 1.43 1.91 l 0.21,0.96 0.21,0.95 0.2,0.96 0.21,0.96 0.21,0.95 v 1.91 l 0.2,0.96 v 1.43 1.43 1.43 1.44 l 0.42,0.95 0.41,0.48 v 1.43 l 0.21,0.96 v 1.43 l 0.21,0.96 v 1.43 l 0.2,1.43 0.21,0.96 0.21,0.95 0.2,0.96 v 1.43 h 0.63 v 1.91 l 0.2,0.96 0.21,0.95 0.21,0.96 0.2,0.95 v 1.44 l 0.21,1.43 0.21,0.95 v 1.44 l 0.41,0.47 0.21,0.96 0.41,0.48 v 1.43 l 0.42,0.96 0.41,0.47 0.21,0.96 0.21,0.95 0.2,0.96 v 1.43 l 0.21,1.43 0.21,0.96 0.41,0.48 0.41,0.48 v 1.43 l 0.21,0.95 0.21,0.96 0.41,0.95 v 1.44 l 0.42,0.47 0.2,0.96 0.42,0.48 0.2,0.95 0.42,0.96 0.41,0.48 0.42,0.47 0.2,0.96 0.21,0.95 0.21,0.96 0.2,1.43 0.21,0.96 0.42,0.47 0.2,0.96 0.21,0.96 0.21,0.95 0.2,0.96 0.42,0.95 0.2,0.96 0.42,0.47 h 0.62 l 0.41,0.48 v 1.43 l 0.42,0.96 0.21,0.95 0.2,0.96 0.21,0.96 v 1.43 1.43 1.91 l 0.41,0.48 0.42,0.48 0.2,0.95 0.42,0.48 0.41,0.48 v 1.43 l 0.21,1.43 0.21,0.96 0.41,0.48 0.21,0.95 0.2,0.96 0.21,0.95 0.42,0.96 0.2,0.95 0.42,0.48 0.41,0.48 0.41,0.48 v 1.43 l 0.21,1.43 v 1.43 1.44 h 0.62 l 0.42,0.47 v 1.44 l 0.2,0.95 0.21,1.44 v 1.43 l 0.21,0.95 0.41,0.48 h 0.62 l 0.21,0.96 0.41,0.95 0.21,0.96 v 1.43 1.43 l 0.21,0.96 0.21,0.95 0.2,0.96 0.42,0.95 v 1.44 1.43 l 0.2,0.96 h 0.62 l 0.21,0.95 0.62,0.48 0.21,0.95 0.41,0.48 0.21,0.96 h 0.62 v 1.43 l 0.62,0.48 0.42,0.47 0.41,0.48 0.41,0.48 0.21,0.95 h 0.62 l 0.21,0.96 0.21,1.43 0.41,0.48 0.21,0.96 0.21,0.95 0.2,0.96 0.21,0.95 v 1.91 h 0.62 v 1.44 l 0.21,0.95 v 1.43 l 0.2,0.96 v 1.91 1.43 1.43 l 0.42,0.48 0.41,0.48 0.42,0.48 h 0.62 l 0.41,0.95 v 1.44 l 0.21,0.95 0.41,0.48 v 1.43 l 0.42,0.48 0.41,0.95 0.21,0.96 0.41,0.48 0.21,0.95 0.21,0.96 h 0.62 l 0.41,0.95 v 1.44 1.43 l 0.21,0.95 h 0.62 v 1.44 l 0.41,0.47 0.21,1.44 0.41,0.48 0.21,0.95 0.42,0.48 0.2,0.95 0.21,0.96 0.41,0.95 0.21,0.96 0.21,0.95 0.2,0.96 0.42,0.48 h 0.62 0.62 l 0.21,1.43 v 1.43 h 0.62 v 1.44 l 0.21,0.95 h 0.62 l 0.62,0.48 0.41,0.48 0.21,0.95 0.41,0.48 0.21,0.95 0.21,0.96 0.62,0.48 0.41,0.48 0.21,0.95 0.21,0.96 v 1.43 1.43 l 0.2,0.96 0.21,1.43 h 0.62 l 0.42,0.48 0.41,0.48 0.41,0.47 0.21,0.96 v 1.91 l 0.41,0.48 0.42,0.47 0.21,0.96 0.41,0.48 0.41,0.47 0.21,1.44 v 1.43 l 0.21,0.96 h 0.62 0.62 v 1.43 l 0.21,0.95 v 1.91 l 0.41,0.48 0.21,0.96 0.41,0.47 0.21,0.96 0.41,0.48 0.42,0.95 0.2,0.96 0.21,0.95 0.21,0.96 0.21,0.95 0.41,0.48 0.41,0.96 0.42,0.47 0.2,0.96 0.42,0.48 0.21,0.95 v 1.44 l 0.2,0.95 0.21,1.43 0.21,0.96 0.2,0.95 0.42,0.48 0.41,0.48 h 0.62 v 1.91 l 0.42,0.48 0.2,0.95 0.21,0.96 0.42,0.48 0.41,0.47 0.21,0.96 0.62,0.48 0.41,0.47 0.21,0.96 0.21,0.95 0.41,0.48 h 0.62 v 1.91 h 0.62 l 0.42,0.48 0.41,0.48 0.41,0.48 0.21,0.95 0.41,0.96 v 1.43 1.43 1.43 1.44 l 0.21,0.95 h 0.62 l 0.62,0.48 h 0.62 l 0.21,0.96 0.42,0.47 h 0.62 l 0.41,0.48 0.21,1.43 0.41,0.48 h 0.62 l 0.42,0.48 0.2,0.95 0.21,0.96 0.62,0.48 0.21,0.95 0.41,0.48 0.42,0.48 0.2,0.95 0.21,0.96 0.21,0.95 0.62,0.48 0.21,0.96 h 0.62 0.62 l 0.21,0.95 v 1.43 l 0.62,0.48 0.2,0.96 0.21,0.95 0.42,0.48 0.41,0.48 0.41,0.48 h 0.83 l 0.21,0.95 0.41,0.48 0.42,0.48 0.41,0.47 0.41,0.48 0.21,0.96 0.62,0.47 0.42,0.48 0.2,0.96 h 0.62 l 0.42,0.47 0.41,0.48 0.62,0.48 0.42,0.48 0.2,0.95 0.42,0.48 0.41,0.48 0.21,0.95 0.41,0.48 h 0.83 l 0.21,0.96 h 0.62 l 0.41,0.47 0.42,0.48 0.41,0.48 0.42,0.95 0.41,0.48 0.21,0.96 0.41,0.47 v 1.44 l 0.42,0.48 0.2,1.43 0.42,0.48 0.41,0.47 v 1.44 h 0.62 l 0.42,0.47 0.2,0.96 0.42,0.95 v 1.44 l 0.41,0.48 0.42,0.47 h 0.62 l 0.41,0.48 0.62,0.48 0.42,0.48 0.41,0.47 0.21,0.96 h 0.62 0.62 l 0.21,1.43 0.41,0.48 h 0.62 l 0.41,0.48 0.21,0.95 h 0.62 0.62 l 0.62,0.48 h 0.63 0.62 l 0.41,0.48 0.42,0.47 h 0.62 0.82 l 0.42,0.48 0.21,0.96 h 0.62 l 0.41,0.48 h 0.62 0.83 0.62 0.62 l 0.42,0.47 h 0.62 0.62 l 0.41,0.48 0.42,0.96 0.41,0.47 0.41,0.48 0.42,0.48 h 0.62 0.62 l 0.41,0.95 h 0.63 0.62 l 0.41,0.48 0.21,0.96 0.2,0.95 0.42,0.48 0.41,0.96 h 0.62 l 0.42,0.47 0.41,0.48 0.42,0.48 0.41,0.48 0.62,0.47 0.21,0.96 0.41,0.48 0.42,0.47 0.41,0.48 h 0.62 l 0.62,0.48 0.42,0.48 0.41,0.47 0.21,0.96 0.2,0.95 h 0.63 l 0.41,0.48 0.62,0.48 0.41,0.48 h 0.63 l 0.41,0.48 0.41,0.47 0.21,0.96 h 0.83 0.62 0.62 l 0.21,0.95 0.41,0.48 h 0.62 l 0.62,0.48 h 0.63 l 0.41,0.48 0.41,0.47 0.42,0.48 h 0.62 0.62 l 0.21,1.43 0.41,0.48 0.41,0.48 h 0.63 l 0.41,0.48 h 0.62 l 0.42,0.95 0.41,0.48 0.21,0.96 0.2,0.95 0.42,0.48 0.2,0.95 h 0.83 0.62 l 0.42,0.48 h 0.62 l 0.41,0.48 h 0.62 l 0.42,0.48 h 0.83 0.62 l 0.2,0.95 0.42,0.48 0.21,0.95 h 0.62 l 0.62,0.48 h 0.62 0.62 0.62 0.62 0.62 l 0.42,0.48 0.62,0.48 h 0.62 l 0.41,0.48 0.42,0.47 h 0.62 0.62 0.83 0.62 0.62 0.62 l 0.41,0.48 0.21,0.96 0.62,0.47 h 0.62 l 0.42,0.48 h 0.62 l 0.41,0.48 h 0.62 0.62 l 0.63,0.48 h 0.62 0.62 0.62 l 0.41,0.47 0.42,0.48 0.41,0.96 0.42,0.47 h 0.62 0.62 0.62 0.62 l 0.62,0.48 0.21,0.96 h 0.62 l 0.41,0.48 0.42,0.47 h 0.62 0.62 0.83 0.62 0.62 0.62 l 0.41,0.48 h 0.63 l 0.41,0.96 h 0.62 0.62 0.62 0.62 0.62 0.83 0.62 0.63 l 0.41,0.47 h 0.62 l 0.41,0.48 h 0.63 l 0.62,0.48 h 0.62 l 0.41,0.48 h 0.62 0.62 0.62 0.83 0.62 l 0.42,0.47 0.21,0.96 0.41,0.48 0.41,0.47 0.21,0.96 0.62,0.48 h 0.62 0.62 l 0.42,0.47 h 0.62 0.62 0.83 l 0.41,0.48 h 0.62 0.62 0.62 0.63 0.82 l 0.42,0.48 0.41,0.48 h 0.62 l 0.21,0.95 h 0.62 0.62 l 0.42,0.96 0.41,0.48 0.41,0.47 0.42,0.48 v 1.43 l 0.41,0.48 h 0.83 0.62 0.62 l 0.42,0.48 h 0.62 0.62 0.83 l 0.41,0.48 h 0.62 l 0.42,0.47 0.41,0.48 h 0.62 l 0.42,0.48 h 0.82 0.62 l 0.42,0.48 h 0.62 0.62 l 0.41,0.48 h 0.83 l 0.42,0.47 h 0.62 l 0.41,0.48 h 0.62 0.62 0.83 0.62 l 0.42,0.48 0.41,0.48 h 0.62 l 0.42,0.47 0.41,0.48 0.62,0.48 0.21,0.95 h 0.62 0.62 0.62 0.62 l 0.42,0.96 h 0.62 0.62 0.62 0.62 0.62 l 0.42,0.48 h 0.82 l 0.21,0.95 0.42,0.48 h 0.62 l 0.2,0.95 0.42,0.48 0.62,0.48 h 0.62 0.62 0.62 l 0.42,0.48 h 0.62 l 0.41,0.95 h 0.62 0.62 0.62 0.63 0.62 0.62 0.83 0.62 l 0.41,0.48 h 0.62 l 0.42,0.48 h 0.62 0.83 0.62 0.62 0.62 0.62 0.62 0.83 0.62 l 0.41,0.48 h 0.62 l 0.42,0.47 h 0.62 l 0.41,0.48 h 0.83 l 0.42,0.48 h 0.62 l 0.41,0.48 h 0.62 0.62 0.83 0.62 l 0.42,0.47 0.41,0.48 H 345 l 0.42,0.48 0.62,0.48 h 0.62 0.62 l 0.41,0.47 h 0.62 0.63 0.62 l 0.41,0.96 h 0.62 0.62 0.62 0.62 l 0.42,0.48 h 0.83 0.62 l 0.41,0.48 h 0.62 l 0.42,0.47 h 0.62 0.62 0.83 0.62 0.62 0.62 0.62 0.62 0.83 0.62 0.62 0.62 0.63 l 0.41,0.48 h 0.83 0.62 0.62 l 0.41,0.48 0.42,0.48 0.2,0.95 h 0.63 0.82 l 0.42,0.48 0.41,0.48 h 0.62 0.62 l 0.42,0.47 h 0.83 0.62 0.62 0.62 0.62 0.62 l 0.62,0.48 h 0.62 0.62 l 0.42,0.48 h 0.62 l 0.41,0.48 h 0.62 0.83 l 0.42,0.47 h 0.62 0.62 0.62 l 0.41,0.48 0.63,0.48 h 0.62 0.62 0.62 l 0.41,0.48 h 0.62 0.83 0.62 0.62 l 0.42,0.47 0.41,0.48 h 0.62 l 0.42,0.48 h 0.83 l 0.41,0.48 0.41,0.48 h 0.62 0.63 l 0.41,0.47 0.62,0.48 0.41,0.48 h 0.63 0.62 0.62 0.62 0.62 0.83 0.62 0.62 0.62 0.62 0.62 0.83 0.62 0.62 0.62 0.63 0.62 l 0.62,0.48 h 0.62 0.62 0.62 0.62 l 0.42,0.47 h 0.62 0.83 0.62 l 0.41,0.48 h 0.62 0.62 l 0.42,0.48 h 0.82 0.63 0.62 0.62 0.62 0.62 0.83 0.62 0.62 0.62 0.62 0.62 0.62 0.83 0.62 0.63 0.62 0.62 0.62 0.83 0.62 0.62 0.62 0.62 0.62 0.83 0.62 0.62 0.62 0.62 0.63 0.62 0.82 0.63 0.62 0.62 0.62 0.62 l 0.62,0.48 h 0.62 0.62 0.62 0.63 0.62 0.62 0.83 0.62 0.62 l 0.41,0.47 h 0.62 0.62 l 0.62,0.48 0.42,0.48 h 0.62 0.62 0.62 0.62 l 0.62,0.48 h 0.63 0.62 0.62 0.62 0.62 0.62 0.83 0.62 0.62 0.62 0.62 0.62 0.83 0.62 0.62 0.63 0.62 0.62 0.83 0.62 0.62 0.62 0.62 0.62 0.62 0.83 0.62 0.62 0.62 0.62 0.63 0.82 0.62 0.63 0.62 0.62 0.62 0.83 0.62 0.62 0.62 0.62 0.62 0.62 0.83 0.62 0.62 0.62 0.63 0.62 0.83 0.62 l 0.41,0.47 h 0.62 0.62 0.62 0.62 0.83 0.62 0.62 0.63 0.62 0.62 l 0.62,0.48 h 0.62 l 0.41,0.48 h 0.63 0.62 0.62 0.83 l 0.41,0.48 h 0.62 0.62 l 0.42,0.48 h 0.62 0.62 0.83 0.62 0.62 0.62 0.62 0.62 0.83 0.62 0.62 0.62 0.62 0.62 0.83 0.62 0.62 0.63 l 0.41,0.47 0.41,0.48 h 0.63 0.82 0.62 0.63 0.62 0.62 0.62 0.83 0.62 0.62 0.62 0.62 0.62 0.83 0.62 0.62 0.62 0.62 0.63 0.62 0.82 l 0.42,0.48 h 0.62 0.62 0.62 0.62 0.83 l 0.42,0.48 h 0.62 0.62 0.62 0.62 0.83" /><path
           id="path174"
           style="fill:none;stroke:#f8766d;stroke-width:4.26999998;stroke-linecap:butt;stroke-linejoin:round;stroke-miterlimit:1;stroke-dasharray:8.54, 8.54;stroke-dashoffset:0;stroke-opacity:1"
           d="m 76.08,69.42 v 0.47 1.44 l 0.2,0.95 v 1.43 1.44 1.43 1.43 1.91 1.44 1.43 1.43 1.44 l 0.21,0.95 v 1.91 1.43 1.44 1.43 1.43 l 0.21,0.96 0.21,0.95 v 1.91 1.44 l 0.2,0.95 v 1.43 l 0.21,0.96 v 1.43 l 0.21,1.44 v 1.43 1.43 1.43 1.44 l 0.2,0.95 0.21,1.44 0.21,0.95 v 1.43 1.44 l 0.2,0.95 0.21,0.96 0.21,0.95 v 1.91 l 0.21,0.96 0.2,0.95 0.21,0.96 v 1.43 l 0.21,0.96 0.2,1.43 0.42,0.48 v 1.43 1.43 1.44 1.43 l 0.21,1.43 0.2,0.96 0.21,0.95 0.21,0.96 0.41,0.48 v 1.43 1.43 l 0.21,1.43 v 1.44 1.43 1.43 l 0.41,0.48 v 1.43 l 0.21,1.44 0.21,0.95 0.41,0.48 0.21,0.95 v 1.44 l 0.2,0.95 0.42,0.96 0.2,0.95 v 1.44 l 0.21,0.95 0.21,0.96 v 1.43 l 0.21,0.95 0.41,0.96 0.21,0.95 0.2,0.96 0.21,0.96 v 1.43 l 0.21,0.95 0.2,1.44 0.42,0.47 v 1.44 1.43 l 0.21,0.95 0.2,0.96 0.21,0.96 v 1.91 l 0.21,0.95 v 1.43 l 0.2,0.96 0.21,0.95 v 1.44 l 0.21,1.43 0.21,0.96 0.2,0.95 0.21,0.96 0.41,0.47 0.42,0.48 v 1.91 l 0.2,0.96 v 1.43 1.43 l 0.42,0.48 0.21,0.96 v 1.43 l 0.41,0.95 v 1.44 1.43 l 0.21,0.96 0.2,0.95 0.21,0.96 v 1.91 l 0.41,0.47 v 1.44 l 0.21,0.95 0.42,0.48 v 1.43 l 0.2,1.44 0.21,0.95 V 217 l 0.21,0.96 v 1.43 1.43 1.44 l 0.2,1.43 0.21,0.96 0.21,0.95 v 1.43 1.44 1.43 l 0.2,1.43 0.42,0.48 0.21,0.96 0.2,0.95 v 1.43 l 0.21,0.96 v 1.91 1.43 1.44 1.43 l 0.21,0.95 v 1.44 l 0.2,0.95 v 1.91 1.43 1.44 l 0.21,0.95 0.21,0.96 h 0.62 l 0.21,1.43 v 1.43 l 0.2,0.96 v 1.43 l 0.21,0.96 0.41,0.48 v 1.43 1.91 1.43 l 0.21,0.96 v 1.43 1.43 l 0.21,0.96 0.21,1.43 0.41,0.48 0.21,0.95 0.2,0.96 0.21,0.95 0.41,0.48 v 1.91 1.44 l 0.21,0.95 0.21,0.96 0.21,0.95 0.2,0.96 0.42,0.47 0.2,1.44 0.42,0.47 0.41,0.48 0.21,0.96 0.21,0.95 v 1.44 l 0.2,1.43 v 1.43 1.43 l 0.42,0.48 0.41,0.48 0.41,0.48 0.42,0.95 v 1.44 1.43 l 0.21,0.95 v 1.44 l 0.2,0.95 v 1.43 1.91 l 0.21,0.96 v 1.43 l 0.21,0.96 0.41,0.48 0.21,0.95 0.41,0.96 v 1.43 1.43 l 0.42,0.48 0.2,0.96 0.21,0.95 0.21,1.43 v 1.44 l 0.41,0.47 0.21,0.96 0.21,0.95 0.2,0.96 0.21,0.95 0.41,0.96 0.21,0.96 0.21,0.95 0.41,0.48 0.21,0.95 0.41,0.48 0.21,1.43 0.41,0.48 v 1.43 l 0.42,0.48 0.2,0.96 0.42,0.48 v 1.43 l 0.21,1.43 0.41,0.48 0.41,0.48 v 1.43 l 0.21,0.95 0.41,0.48 0.42,0.96 v 1.43 l 0.21,0.96 0.41,0.47 h 0.62 v 1.44 l 0.21,1.43 0.41,0.48 0.42,0.47 0.2,0.96 h 0.62 l 0.21,0.95 0.42,0.48 0.62,0.48 0.41,0.48 v 1.43 1.43 l 0.21,0.96 0.2,0.95 0.21,1.44 0.21,0.95 v 1.43 l 0.21,0.96 0.2,0.96 0.42,0.47 0.41,0.96 0.41,0.48 0.21,0.95 0.42,0.48 0.2,0.95 v 1.44 l 0.42,0.47 0.62,0.48 0.41,0.48 v 1.43 1.44 1.43 l 0.21,0.95 0.62,0.48 0.41,0.48 v 1.43 l 0.21,0.96 h 0.62 l 0.42,0.47 0.62,0.48 h 0.62 l 0.41,0.48 0.21,0.96 v 1.43 l 0.21,0.95 0.41,0.48 0.41,0.96 0.42,0.47 0.41,0.48 h 0.62 0.62 l 0.21,0.96 0.62,0.47 v 1.44 l 0.42,0.47 0.2,0.96 0.42,0.48 0.21,0.95 0.2,0.96 0.62,0.48 v 1.43 1.43 l 0.21,0.96 v 1.43 l 0.41,0.48 0.21,1.43 h 0.62 l 0.42,0.48 0.2,0.95 0.21,0.96 0.41,0.48 0.21,1.43 0.42,0.48 0.41,0.47 0.21,0.96 h 0.62 l 0.2,0.95 v 1.44 l 0.63,0.48 0.2,0.95 0.21,0.96 h 0.62 l 0.42,0.47 v 1.44 l 0.41,0.95 0.21,0.96 0.41,0.47 0.41,0.48 0.42,0.48 0.21,0.96 0.41,0.95 0.41,0.48 0.42,0.48 0.41,0.47 0.42,0.48 0.2,0.96 v 1.43 h 0.83 l 0.21,0.95 0.41,0.48 0.42,0.48 v 1.43 l 0.41,0.48 v 1.91 h 0.62 l 0.42,0.48 h 0.62 l 0.2,0.95 0.42,0.48 0.41,0.96 h 0.62 l 0.42,0.47 h 0.62 l 0.41,0.48 h 0.62 l 0.42,0.48 0.62,0.48 0.2,0.95 0.42,0.48 0.41,0.48 h 0.62 l 0.21,0.95 0.41,0.96 h 0.63 0.62 0.62 l 0.41,0.48 0.42,0.47 h 0.62 l 0.41,0.96 0.21,0.95 0.21,0.96 h 0.62 l 0.41,0.48 v 1.43 l 0.41,0.95 0.42,0.48 h 0.62 0.62 l 0.41,0.48 0.42,0.48 0.62,0.48 v 1.43 l 0.41,0.48 h 0.63 l 0.41,0.47 h 0.62 v 1.44 l 0.41,0.95 h 0.63 0.62 0.62 l 0.2,0.96 h 0.63 l 0.62,0.47 0.41,0.48 h 0.62 0.62 l 0.42,0.48 0.41,0.48 0.41,0.95 h 0.63 0.62 l 0.41,0.48 0.42,0.48 h 0.62 l 0.2,0.95 h 0.83 v 1.44 h 0.62 l 0.42,0.47 0.41,0.48 0.41,0.48 0.63,0.48 0.2,0.95 0.21,0.96 0.41,0.47 v 1.44 l 0.42,0.48 h 0.83 l 0.2,0.95 0.42,0.48 0.41,0.48 0.21,0.95 0.41,0.48 0.42,0.48 0.41,0.95 h 0.62 l 0.42,0.48 0.41,0.48 0.41,0.47 0.21,0.96 0.62,0.48 h 0.62 0.62 l 0.42,0.48 0.41,0.47 0.42,0.48 0.41,0.48 h 0.83 l 0.2,0.95 0.21,0.96 0.42,0.48 0.41,0.47 h 0.62 0.83 0.62 l 0.41,0.48 0.42,0.48 0.41,0.48 0.42,0.47 h 0.82 l 0.42,0.48 0.41,0.48 h 0.62 l 0.21,0.95 0.41,0.48 h 0.63 l 0.62,0.48 0.41,0.48 0.42,0.48 0.41,0.47 h 0.62 0.62 l 0.62,0.48 h 0.62 0.62 l 0.21,0.96 h 0.62 0.62 l 0.62,0.47 0.42,0.48 0.41,0.48 h 0.62 l 0.21,0.95 h 0.62 0.62 l 0.21,1.44 h 0.62 0.62 l 0.42,0.47 h 0.62 0.62 0.83 0.62 l 0.41,0.48 0.42,0.48 0.41,0.48 0.41,0.48 0.62,0.47 0.42,0.48 0.41,0.48 h 0.62 0.63 0.62 l 0.2,0.95 h 0.83 0.62 0.62 0.62 0.63 0.62 0.82 0.63 l 0.41,0.48 0.41,0.48 0.42,0.48 h 0.62 0.62 0.83 0.62 0.62 l 0.41,0.47 h 0.63 0.62 0.82 0.63 l 0.41,0.48 h 0.62 0.62 0.62 0.83 0.62 0.62 0.62 0.63 l 0.41,0.48 0.41,0.48 h 0.83 0.62 0.62 0.62 l 0.42,0.47 h 0.62 l 0.62,0.48 0.41,0.48 h 0.63 0.62 l 0.41,0.48 0.42,0.47 h 0.82 0.62 l 0.42,0.48 h 0.62 0.62 0.62 0.62 0.83 0.62 l 0.42,0.48 h 0.62 l 0.41,0.48 h 0.62 l 0.62,0.48 0.42,0.47 0.41,0.48 h 0.62 l 0.42,0.48 0.41,0.48 0.41,0.95 h 0.63 l 0.41,0.48 h 0.62 0.62 l 0.42,0.48 h 0.62 l 0.62,0.47 h 0.62 0.62 0.62 0.62 0.62 0.83 0.62 l 0.42,0.48 h 0.62 l 0.41,0.48 h 0.62 l 0.42,0.48 h 0.82 0.63 0.62 0.62 l 0.41,0.47 h 0.62 0.83 0.62 v 1.44 h 0.62 0.62 0.63 l 0.41,0.95 0.21,0.96 h 0.62 0.62 0.62 0.62 0.62 l 0.62,0.48 h 0.62 0.63 l 0.41,0.47 h 0.62 l 0.41,0.48 0.63,0.48 h 0.62 0.62 0.62 0.62 l 0.41,0.48 h 0.83 l 0.21,0.95 0.41,0.48 h 0.62 0.63 0.62 0.62 0.83 0.62 0.62 0.62 0.62 0.62 0.83 0.62 l 0.41,0.48 h 0.63 0.62 0.62 l 0.62,0.47 h 0.62 0.62 0.62 0.62 0.62 0.62 0.83 0.62 l 0.42,0.48 h 0.62 0.62 0.62 0.83 0.62 0.62 0.62 0.62 0.62 0.63 0.82 0.62 l 0.42,0.48 h 0.62 0.62 0.62 0.83 0.62 0.62 l 0.42,0.48 h 0.62 0.62 0.83 0.62 0.62 0.62 0.62 0.62 0.62 0.83 0.62 0.62 0.62 0.63 0.62 l 0.62,0.47 h 0.62 0.62 0.62 0.62 0.62 0.83 0.62 0.62 0.62 0.63 0.62 0.62 0.83 0.62 0.62 0.62 0.62 0.62 0.83 0.62 0.62 0.62 0.62 0.62 0.83 0.62 0.62 0.63 0.62 0.62 0.62 0.83 0.62 0.62 0.62 0.62 0.62 0.83 l 0.41,0.48 h 0.63 0.62 l 0.41,0.48 h 0.62 0.62 l 0.62,0.48 h 0.62 0.63 0.62 0.62 0.62 l 0.62,0.48 h 0.62 0.62 0.62 0.62 0.63 0.82 0.62 0.63 0.62 0.62 0.62 0.62 0.83 0.62 0.62 0.62 0.62 0.62 0.83 0.62 0.62 l 0.42,0.47 h 0.62 0.62 0.83 0.62 l 0.41,0.48 h 0.62 0.63 0.62 0.62 0.83 0.62 0.62 0.62 0.62 0.62 0.83 l 0.41,0.48 h 0.62 0.63 0.62 0.62 0.83 0.62 0.62 0.62 0.62 0.62 0.62 0.83 l 0.41,0.48 h 0.63 l 0.41,0.47 h 0.62 0.62 0.83 0.62 0.62 0.62 0.62 0.62 0.63 0.82 0.63 l 0.41,0.48 h 0.62 0.62 0.62 0.83 0.62 0.62 0.62 0.62 0.63 0.82 0.63 l 0.41,0.48 0.41,0.48 h 0.62 0.63 0.62 0.82 0.63 0.62 0.62 0.62 l 0.41,0.47 h 0.83 0.62 0.62 0.62 0.63 0.62 0.82 0.63 0.62 0.62 0.62 0.62 0.62 0.83 0.62 0.62 0.62 0.62 0.62 0.83 0.62 0.62 0.63 0.62 0.62 0.83 0.62 0.62 0.62 0.62 0.62 0.62 0.83 0.62 0.62 l 0.42,0.48 h 0.62 0.62 0.83 0.62 l 0.41,0.48 h 0.62 0.62 l 0.42,0.48 h 0.62 0.83 0.62 0.62 0.62 0.62 0.62 0.83 0.62 0.62 0.62 0.62 0.63 0.82 0.63 0.62 0.62 0.62 0.62 0.62 0.83 0.62 0.62 0.62 0.62 0.62 0.83 0.62 0.62 0.63 0.62 0.62 l 0.62,0.47 h 0.62 0.62 0.62 0.62 0.62 l 0.42,0.48 h 0.83 0.62 l 0.41,0.48 h 0.62 0.62 0.62 0.83 0.62 l 0.42,0.48 h 0.62 0.62 0.62 0.83 0.62 0.62 0.62 0.62 0.62 0.63 0.82 0.62 0.63 0.62 0.62 0.62 0.83 0.62 0.62 0.62 0.62 0.62 0.62 l 0.62,0.48 h 0.63 0.62 0.62 0.62 0.62 0.83 0.62 0.62 0.62 l 0.42,0.47 h 0.62 0.82 0.63 0.62 0.62 0.62 0.62 0.62 0.83 0.62 0.62 0.62 0.62 0.62 0.83 0.62 0.62 0.63 0.62 l 0.41,0.48 h 0.83 0.62 0.62 0.62 0.62 0.62 0.63 0.82 0.62 0.63 l 0.41,0.48 h 0.62 0.62 0.83 0.62 0.62 0.62 l 0.42,0.48 h 0.62 0.83 0.62 0.62 0.62 0.62 0.62 0.62 0.83 0.62 0.62 0.62 0.62 0.63 0.82 0.63 0.62 0.62 0.62 0.62 0.83" /><path
           id="path176"
           style="fill:none;stroke:#619cff;stroke-width:4.26999998;stroke-linecap:butt;stroke-linejoin:round;stroke-miterlimit:1;stroke-dasharray:17.07, 8.54;stroke-dashoffset:0;stroke-opacity:1"
           d="m 76.08,69.42 v 0.47 1.44 1.43 1.43 1.43 1.44 l 0.2,0.95 0.21,1.44 v 1.43 1.43 1.43 1.44 1.43 1.91 1.43 1.44 l 0.21,0.95 v 1.43 l 0.21,0.96 v 1.43 1.91 l 0.2,0.96 v 1.43 1.43 1.44 1.43 l 0.21,1.43 0.21,0.96 v 1.43 1.43 1.44 1.43 l 0.2,1.43 v 1.44 1.43 l 0.21,0.95 0.21,0.96 v 1.43 1.44 l 0.2,1.43 0.21,0.95 v 1.44 l 0.21,0.95 0.21,0.96 v 1.43 l 0.2,1.43 v 1.44 l 0.21,0.95 0.21,0.96 0.2,0.95 v 1.43 l 0.21,1.44 v 1.43 1.43 1.44 l 0.21,0.95 v 1.43 1.44 l 0.41,0.95 0.21,0.96 v 1.43 1.43 1.44 l 0.21,0.95 0.41,0.96 v 1.43 1.43 1.44 l 0.21,0.95 0.2,0.96 v 1.91 1.43 1.43 1.43 l 0.21,0.96 v 1.43 h 0.62 l 0.42,0.96 0.2,0.95 v 1.44 l 0.21,0.95 0.21,0.96 v 1.43 1.91 1.43 1.44 l 0.2,0.95 v 1.43 l 0.42,0.48 v 1.43 l 0.41,0.96 0.21,0.96 v 1.43 l 0.41,0.48 0.21,0.95 0.21,0.96 0.2,1.43 0.42,0.48 v 1.43 1.43 1.44 l 0.21,0.95 0.2,1.43 v 1.44 1.43 l 0.21,0.95 v 1.44 l 0.21,0.95 0.2,0.96 0.21,1.43 0.21,0.96 0.21,0.95 0.2,0.96 v 1.43 1.43 1.91 1.44 l 0.42,0.47 0.2,0.96 v 1.43 1.43 l 0.42,0.96 0.2,0.96 0.21,0.95 0.42,0.48 0.2,0.95 v 1.44 1.43 1.91 1.43 l 0.21,0.96 0.41,0.48 v 1.43 1.43 l 0.21,1.43 v 1.44 1.43 1.43 l 0.21,0.96 0.2,0.95 0.21,1.44 0.21,0.95 0.21,0.96 0.2,0.95 0.42,0.48 0.2,0.95 0.42,0.48 0.2,1.44 0.42,0.47 0.21,0.96 0.2,0.95 0.21,0.96 v 1.43 l 0.41,0.96 0.21,0.95 v 1.44 1.43 l 0.21,0.95 0.2,0.96 0.21,0.95 0.21,1.44 0.21,0.95 0.41,0.48 0.41,0.48 0.21,0.95 v 1.44 l 0.42,0.95 v 1.43 1.44 1.43 l 0.2,0.95 0.42,0.48 v 1.91 1.44 1.43 1.43 1.43 1.44 1.43 l 0.41,0.96 0.21,0.95 0.41,0.48 v 1.43 l 0.21,0.96 0.41,0.47 v 1.91 1.44 l 0.42,0.48 0.41,0.47 0.21,0.96 v 1.43 l 0.41,0.96 v 1.43 l 0.42,0.48 0.41,0.47 0.21,0.96 0.41,0.48 0.21,0.95 v 1.91 1.44 l 0.2,0.95 v 1.43 1.44 l 0.21,0.95 0.21,1.44 v 1.43 1.43 l 0.21,0.96 v 1.43 l 0.2,0.95 0.62,0.48 0.42,0.48 0.41,0.48 0.21,0.95 0.21,0.96 0.41,0.48 v 1.43 l 0.41,0.95 0.42,0.48 0.41,0.48 0.21,0.95 v 1.44 l 0.41,0.47 0.21,1.44 0.21,0.95 0.41,0.48 0.42,0.48 0.41,0.48 0.21,0.95 0.2,0.96 0.62,0.47 0.42,0.48 0.21,0.96 v 1.43 l 0.41,0.48 0.21,0.95 0.2,1.44 0.42,0.47 0.41,0.48 0.21,0.96 0.21,0.95 v 1.43 l 0.41,0.96 0.41,0.48 h 0.63 v 1.43 l 0.41,0.48 0.21,0.95 0.2,0.96 0.62,0.48 0.21,0.95 0.21,0.96 0.41,0.47 0.42,0.48 0.2,0.96 v 1.91 l 0.21,0.95 v 1.44 1.43 l 0.41,0.48 0.21,0.95 0.21,1.43 0.21,0.96 0.41,0.48 v 1.43 l 0.21,0.95 0.2,0.96 0.42,0.48 0.41,0.95 0.21,0.96 0.41,0.48 0.21,0.95 h 0.62 v 1.43 l 0.62,0.48 0.21,0.96 0.41,0.47 0.21,0.96 0.21,0.96 v 1.43 1.91 h 0.62 l 0.21,0.95 0.2,0.96 v 1.43 l 0.21,0.96 0.21,0.95 h 0.82 0.63 l 0.41,0.48 0.41,0.48 0.21,0.95 0.21,0.96 0.62,0.48 h 0.62 v 1.43 l 0.41,0.48 0.21,0.95 0.41,0.48 0.42,0.48 0.62,0.47 0.21,0.96 0.2,0.96 0.42,0.47 v 1.44 h 0.62 l 0.41,0.95 0.21,0.96 0.41,0.47 0.42,0.48 0.21,0.96 0.41,0.47 0.41,0.96 0.42,0.48 0.41,0.47 0.42,0.48 0.41,0.48 0.41,0.48 0.21,0.95 0.41,0.96 0.21,0.95 0.42,0.48 0.41,0.48 0.21,0.95 0.41,0.48 0.62,0.48 0.42,0.48 v 1.43 l 0.2,0.96 0.42,0.47 0.2,0.96 0.21,1.43 0.21,0.96 0.41,0.47 0.42,0.48 h 0.62 l 0.2,0.96 0.42,0.47 0.41,0.96 0.42,0.48 0.2,0.95 0.21,0.96 h 0.62 l 0.42,0.48 0.41,0.95 0.41,0.48 0.42,0.48 0.41,0.47 0.21,0.96 0.41,0.48 0.62,0.47 0.42,0.48 h 0.62 l 0.21,0.96 0.2,0.95 h 0.62 l 0.21,0.96 0.62,0.48 0.42,0.47 0.41,0.48 0.41,0.48 0.21,0.95 0.42,0.48 0.2,1.43 h 0.62 l 0.21,0.96 0.41,0.48 0.42,0.47 h 0.62 l 0.21,0.96 0.2,1.43 0.42,0.48 h 0.62 0.62 l 0.41,0.48 0.42,0.48 0.62,0.47 0.41,0.48 0.21,0.96 v 1.43 l 0.21,0.95 0.41,0.48 h 0.83 l 0.41,0.48 0.21,0.95 0.41,0.48 0.21,0.96 h 0.62 l 0.42,0.48 0.2,1.43 0.21,0.95 0.42,0.48 0.2,0.96 h 0.62 l 0.42,0.47 0.2,1.44 h 0.63 l 0.2,0.95 0.42,0.48 h 0.62 l 0.2,0.95 0.42,0.96 0.41,0.48 0.21,0.95 h 0.62 l 0.41,0.48 0.21,0.96 0.21,0.95 0.21,1.43 h 0.62 l 0.41,0.48 0.41,0.48 0.42,0.48 h 0.62 0.83 l 0.41,0.47 h 0.62 l 0.21,0.96 v 1.43 l 0.21,0.96 0.41,0.95 0.42,0.48 h 0.62 0.62 0.62 0.62 0.62 l 0.21,1.43 0.41,0.48 h 0.62 l 0.42,0.48 h 0.62 l 0.21,0.95 0.62,0.48 h 0.62 l 0.41,0.48 h 0.62 l 0.42,0.48 h 0.62 l 0.41,0.47 0.42,0.96 h 0.62 0.62 l 0.41,0.48 h 0.62 l 0.42,0.48 h 0.82 l 0.42,0.47 h 0.62 l 0.41,0.48 h 0.63 0.62 0.82 l 0.42,0.48 0.21,0.95 0.41,0.48 h 0.62 0.62 0.62 l 0.62,0.48 h 0.62 0.63 0.62 l 0.41,0.48 0.42,0.47 0.62,0.48 0.41,0.48 h 0.62 0.62 l 0.42,0.48 0.41,0.47 h 0.83 l 0.41,0.48 h 0.62 l 0.42,0.48 0.41,0.48 0.21,0.95 h 0.62 0.83 0.62 0.62 l 0.41,0.48 h 0.63 0.62 l 0.62,0.48 0.41,0.48 0.42,0.47 h 0.62 0.62 l 0.41,0.48 0.62,0.48 h 0.62 0.62 0.63 0.62 0.62 l 0.41,0.48 0.42,0.95 h 0.62 0.62 0.62 l 0.41,0.48 h 0.62 0.83 0.62 0.62 0.63 0.62 0.62 0.62 0.83 0.62 0.62 0.62 l 0.41,0.48 h 0.63 l 0.62,0.47 h 0.62 0.62 0.62 0.62 l 0.21,0.96 h 0.83 0.62 0.62 l 0.41,0.48 h 0.62 l 0.42,0.47 h 0.62 0.83 l 0.41,0.48 h 0.62 l 0.42,0.48 h 0.62 l 0.41,0.48 0.62,0.48 h 0.62 l 0.42,0.47 h 0.62 l 0.41,0.48 0.42,0.48 0.62,0.48 0.41,0.47 h 0.62 0.62 0.62 0.63 0.62 0.82 0.63 0.62 l 0.41,0.48 h 0.62 0.62 l 0.62,0.48 h 0.63 0.62 0.62 l 0.2,0.95 h 0.63 l 0.62,0.48 h 0.62 0.62 0.62 0.62 0.62 0.62 0.83 0.62 0.62 0.62 l 0.42,0.48 0.41,0.48 h 0.83 0.62 l 0.42,0.47 h 0.62 0.62 l 0.41,0.48 0.42,0.48 h 0.82 0.62 0.63 l 0.41,0.48 h 0.62 0.62 l 0.62,0.48 0.42,0.47 h 0.62 0.62 0.62 0.62 0.83 0.62 0.62 l 0.42,0.48 h 0.62 0.62 0.62 l 0.62,0.48 h 0.62 0.62 0.62 l 0.42,0.48 h 0.62 0.83 0.62 0.62 l 0.41,0.47 h 0.62 l 0.42,0.48 h 0.83 0.62 l 0.41,0.48 h 0.62 0.62 l 0.42,0.48 h 0.62 0.83 0.62 0.62 0.62 0.62 l 0.41,0.47 h 0.83 0.62 0.63 0.62 0.62 0.62 0.83 l 0.41,0.48 h 0.62 0.62 0.62 0.62 0.63 0.82 l 0.42,0.48 h 0.62 0.62 l 0.21,0.95 h 0.62 0.83 0.62 0.62 0.62 0.62 0.62 0.62 0.83 0.62 0.62 0.62 0.63 0.62 0.82 0.63 0.62 0.62 0.62 0.62 0.83 0.62 0.62 0.62 0.62 0.62 0.62 0.83 0.62 0.62 l 0.42,0.48 h 0.62 0.62 l 0.62,0.48 h 0.62 0.62 l 0.42,0.48 h 0.62 0.62 0.83 0.62 0.62 0.62 0.62 l 0.42,0.47 h 0.62 0.83 0.62 l 0.41,0.48 h 0.62 0.62 0.62 0.83 0.62 l 0.42,0.48 h 0.62 0.62 0.62 0.83 0.62 l 0.41,0.48 h 0.62 0.63 0.62 0.62 0.83 0.62 0.62 0.62 0.62 0.62 0.83 0.62 0.62 0.62 0.62 0.62 0.63 0.82 0.62 0.63 0.62 0.62 0.62 0.83 l 0.41,0.48 h 0.62 0.62 0.62 0.63 0.82 l 0.42,0.47 h 0.62 l 0.41,0.48 h 0.62 0.63 0.62 0.82 0.63 0.62 0.62 0.62 0.62 0.83 0.62 0.62 0.62 0.62 0.62 0.83 0.62 0.62 0.62 0.63 0.62 0.62 0.83 0.62 0.62 0.62 0.62 0.62 0.83 0.62 0.62 0.62 0.62 0.62 0.83 l 0.42,0.48 h 0.62 0.62 l 0.41,0.48 h 0.62 0.63 0.82 0.62 0.63 0.62 0.62 l 0.41,0.47 h 0.83 0.62 0.62 0.62 0.62 0.62 0.63 0.82 0.63 0.62 0.62 0.62 0.62 0.83 0.62 0.62 0.62 0.62 0.62 0.83 0.62 0.62 0.62 0.63 0.62 0.62 0.83 0.62 0.62 0.62 0.62 0.62 0.83 0.62 l 0.41,0.48 h 0.63 0.62 0.62 0.83 0.62 0.62 l 0.41,0.48 0.42,0.48 h 0.62 0.62 0.83 0.62 0.62 0.62 0.62 0.62 0.83 0.62 0.62 0.62 0.62 0.62 l 0.63,0.47 h 0.62 0.62 0.62 0.62 0.62 l 0.42,0.48 h 0.82 0.62 0.63 0.62 0.62 0.62 0.83 0.62 0.62 0.62 0.62 0.62 0.62 l 0.62,0.48 h 0.63 0.62 0.62 0.62 0.62 0.83 0.62 0.62 0.62 0.62 0.62 0.83 0.62 0.62 0.62 0.63 0.62 0.62 0.83 0.62 0.62 0.62 0.62 0.62 0.83 0.62 0.62 0.62 0.62 0.62 l 0.63,0.48 h 0.62 0.62 0.62 0.62 0.62 0.62 0.83 0.62 0.62 0.62 0.62 0.63 0.82 0.62 0.63 0.62 l 0.41,0.47 0.41,0.48 h 0.83 0.62 0.63 0.62 0.62 0.62 0.62 l 0.62,0.48 0.41,0.48 h 0.63 0.62 0.62 0.62 0.83 0.62 0.62 0.62 l 0.41,0.48 h 0.63 0.62 0.82 0.63 0.62 0.62 0.62 0.62 0.83 0.62 0.62 0.62 0.62 0.62 0.83 0.62 0.62 l 0.42,0.47 h 0.62 0.62 l 0.41,0.48 h 0.83 0.62 0.62 0.63 0.62 0.62 0.83 0.62 0.62 0.62 0.62 0.62 0.83 0.62 0.62 0.62 l 0.42,0.48 h 0.62 0.62 0.83 0.62 0.62 0.62 0.62 0.62 0.83 0.62 0.62 0.62 0.62 0.63 0.82 0.62 0.63 0.62 0.62 0.62 0.62 0.83 0.62 l 0.41,0.48 h 0.62 0.62 0.63 0.82 0.63 0.62 0.62 0.62 0.62 0.83" /><path
           id="path178"
           style="fill:none;stroke:#333333;stroke-width:1.07000005;stroke-linecap:round;stroke-linejoin:round;stroke-miterlimit:10;stroke-dasharray:none;stroke-opacity:1"
           d="M 53.29,46.63 H 554.52 V 547.86 H 53.29 Z" /></g></g><g
       id="g180" /><g
       id="g182" /><g
       id="g184" /><g
       id="g186" /><g
       id="g188" /><g
       id="g190" /><g
       id="g192" /><g
       id="g194" /><g
       id="g196" /><g
       id="g198" /><g
       id="g200" /><g
       id="g202" /><g
       id="g204" /><g
       id="g206" /><g
       id="g208" /><g
       id="g210"><text
         id="text214"
         style="font-variant:normal;font-weight:normal;font-size:13px;font-family:Helvetica;-inkscape-font-specification:Helvetica;writing-mode:lr-tb;fill:#4d4d4d;fill-opacity:1;fill-rule:nonzero;stroke:none"
         transform="matrix(1,0,0,-1,23.07,64.75)"><tspan
           id="tspan212"
           y="0"
           x="0 7.2280002 10.842 18.07">0.00</tspan></text>
<text
         id="text218"
         style="font-variant:normal;font-weight:normal;font-size:13px;font-family:Helvetica;-inkscape-font-specification:Helvetica;writing-mode:lr-tb;fill:#4d4d4d;fill-opacity:1;fill-rule:nonzero;stroke:none"
         transform="matrix(1,0,0,-1,23.07,110.31)"><tspan
           id="tspan216"
           y="0"
           x="0 7.2280002 10.842 18.07">0.10</tspan></text>
<text
         id="text222"
         style="font-variant:normal;font-weight:normal;font-size:13px;font-family:Helvetica;-inkscape-font-specification:Helvetica;writing-mode:lr-tb;fill:#4d4d4d;fill-opacity:1;fill-rule:nonzero;stroke:none"
         transform="matrix(1,0,0,-1,23.07,178.66)"><tspan
           id="tspan220"
           y="0"
           x="0 7.2280002 10.842 18.07">0.25</tspan></text>
<text
         id="text226"
         style="font-variant:normal;font-weight:normal;font-size:13px;font-family:Helvetica;-inkscape-font-specification:Helvetica;writing-mode:lr-tb;fill:#4d4d4d;fill-opacity:1;fill-rule:nonzero;stroke:none"
         transform="matrix(1,0,0,-1,23.07,292.58)"><tspan
           id="tspan224"
           y="0"
           x="0 7.2280002 10.842 18.07">0.50</tspan></text>
<text
         id="text230"
         style="font-variant:normal;font-weight:normal;font-size:13px;font-family:Helvetica;-inkscape-font-specification:Helvetica;writing-mode:lr-tb;fill:#4d4d4d;fill-opacity:1;fill-rule:nonzero;stroke:none"
         transform="matrix(1,0,0,-1,23.07,406.49)"><tspan
           id="tspan228"
           y="0"
           x="0 7.2280002 10.842 18.07">0.75</tspan></text>
<text
         id="text234"
         style="font-variant:normal;font-weight:normal;font-size:13px;font-family:Helvetica;-inkscape-font-specification:Helvetica;writing-mode:lr-tb;fill:#4d4d4d;fill-opacity:1;fill-rule:nonzero;stroke:none"
         transform="matrix(1,0,0,-1,23.07,474.84)"><tspan
           id="tspan232"
           y="0"
           x="0 7.2280002 10.842 18.07">0.90</tspan></text>
<text
         id="text238"
         style="font-variant:normal;font-weight:normal;font-size:13px;font-family:Helvetica;-inkscape-font-specification:Helvetica;writing-mode:lr-tb;fill:#4d4d4d;fill-opacity:1;fill-rule:nonzero;stroke:none"
         transform="matrix(1,0,0,-1,23.07,520.41)"><tspan
           id="tspan236"
           y="0"
           x="0 7.2280002 10.842 18.07">1.00</tspan></text>
</g><g
       id="g240" /><g
       id="g242"><path
         id="path244"
         style="fill:none;stroke:#333333;stroke-width:1.07000005;stroke-linecap:butt;stroke-linejoin:round;stroke-miterlimit:10;stroke-dasharray:none;stroke-opacity:1"
         d="m 50.55,69.42 h 2.74" /><path
         id="path246"
         style="fill:none;stroke:#333333;stroke-width:1.07000005;stroke-linecap:butt;stroke-linejoin:round;stroke-miterlimit:10;stroke-dasharray:none;stroke-opacity:1"
         d="m 50.55,114.98 h 2.74" /><path
         id="path248"
         style="fill:none;stroke:#333333;stroke-width:1.07000005;stroke-linecap:butt;stroke-linejoin:round;stroke-miterlimit:10;stroke-dasharray:none;stroke-opacity:1"
         d="m 50.55,183.33 h 2.74" /><path
         id="path250"
         style="fill:none;stroke:#333333;stroke-width:1.07000005;stroke-linecap:butt;stroke-linejoin:round;stroke-miterlimit:10;stroke-dasharray:none;stroke-opacity:1"
         d="m 50.55,297.25 h 2.74" /><path
         id="path252"
         style="fill:none;stroke:#333333;stroke-width:1.07000005;stroke-linecap:butt;stroke-linejoin:round;stroke-miterlimit:10;stroke-dasharray:none;stroke-opacity:1"
         d="m 50.55,411.16 h 2.74" /><path
         id="path254"
         style="fill:none;stroke:#333333;stroke-width:1.07000005;stroke-linecap:butt;stroke-linejoin:round;stroke-miterlimit:10;stroke-dasharray:none;stroke-opacity:1"
         d="m 50.55,479.51 h 2.74" /><path
         id="path256"
         style="fill:none;stroke:#333333;stroke-width:1.07000005;stroke-linecap:butt;stroke-linejoin:round;stroke-miterlimit:10;stroke-dasharray:none;stroke-opacity:1"
         d="m 50.55,525.08 h 2.74" /></g><g
       id="g258" /><g
       id="g260" /><g
       id="g262" /><g
       id="g264" /><g
       id="g266" /><g
       id="g268" /><g
       id="g270" /><g
       id="g272" /><g
       id="g274" /><g
       id="g276"><path
         id="path278"
         style="fill:none;stroke:#333333;stroke-width:1.07000005;stroke-linecap:butt;stroke-linejoin:round;stroke-miterlimit:10;stroke-dasharray:none;stroke-opacity:1"
         d="m 76.08,43.89 v 2.74" /><path
         id="path280"
         style="fill:none;stroke:#333333;stroke-width:1.07000005;stroke-linecap:butt;stroke-linejoin:round;stroke-miterlimit:10;stroke-dasharray:none;stroke-opacity:1"
         d="m 121.64,43.89 v 2.74" /><path
         id="path282"
         style="fill:none;stroke:#333333;stroke-width:1.07000005;stroke-linecap:butt;stroke-linejoin:round;stroke-miterlimit:10;stroke-dasharray:none;stroke-opacity:1"
         d="m 189.99,43.89 v 2.74" /><path
         id="path284"
         style="fill:none;stroke:#333333;stroke-width:1.07000005;stroke-linecap:butt;stroke-linejoin:round;stroke-miterlimit:10;stroke-dasharray:none;stroke-opacity:1"
         d="m 303.91,43.89 v 2.74" /><path
         id="path286"
         style="fill:none;stroke:#333333;stroke-width:1.07000005;stroke-linecap:butt;stroke-linejoin:round;stroke-miterlimit:10;stroke-dasharray:none;stroke-opacity:1"
         d="m 417.82,43.89 v 2.74" /><path
         id="path288"
         style="fill:none;stroke:#333333;stroke-width:1.07000005;stroke-linecap:butt;stroke-linejoin:round;stroke-miterlimit:10;stroke-dasharray:none;stroke-opacity:1"
         d="m 486.17,43.89 v 2.74" /><path
         id="path290"
         style="fill:none;stroke:#333333;stroke-width:1.07000005;stroke-linecap:butt;stroke-linejoin:round;stroke-miterlimit:10;stroke-dasharray:none;stroke-opacity:1"
         d="m 531.74,43.89 v 2.74" /></g><g
       id="g292" /><g
       id="g294"><text
         id="text298"
         style="font-variant:normal;font-weight:normal;font-size:13px;font-family:Helvetica;-inkscape-font-specification:Helvetica;writing-mode:lr-tb;fill:#4d4d4d;fill-opacity:1;fill-rule:nonzero;stroke:none"
         transform="matrix(1,0,0,-1,63.43,32.37)"><tspan
           id="tspan296"
           y="0"
           x="0 7.2280002 10.842 18.07">0.00</tspan></text>
<text
         id="text302"
         style="font-variant:normal;font-weight:normal;font-size:13px;font-family:Helvetica;-inkscape-font-specification:Helvetica;writing-mode:lr-tb;fill:#4d4d4d;fill-opacity:1;fill-rule:nonzero;stroke:none"
         transform="matrix(1,0,0,-1,108.99,32.37)"><tspan
           id="tspan300"
           y="0"
           x="0 7.2280002 10.842 18.07">0.10</tspan></text>
<text
         id="text306"
         style="font-variant:normal;font-weight:normal;font-size:13px;font-family:Helvetica;-inkscape-font-specification:Helvetica;writing-mode:lr-tb;fill:#4d4d4d;fill-opacity:1;fill-rule:nonzero;stroke:none"
         transform="matrix(1,0,0,-1,177.34,32.37)"><tspan
           id="tspan304"
           y="0"
           x="0 7.2280002 10.842 18.07">0.25</tspan></text>
<text
         id="text310"
         style="font-variant:normal;font-weight:normal;font-size:13px;font-family:Helvetica;-inkscape-font-specification:Helvetica;writing-mode:lr-tb;fill:#4d4d4d;fill-opacity:1;fill-rule:nonzero;stroke:none"
         transform="matrix(1,0,0,-1,291.26,32.37)"><tspan
           id="tspan308"
           y="0"
           x="0 7.2280002 10.842 18.07">0.50</tspan></text>
<text
         id="text314"
         style="font-variant:normal;font-weight:normal;font-size:13px;font-family:Helvetica;-inkscape-font-specification:Helvetica;writing-mode:lr-tb;fill:#4d4d4d;fill-opacity:1;fill-rule:nonzero;stroke:none"
         transform="matrix(1,0,0,-1,405.17,32.37)"><tspan
           id="tspan312"
           y="0"
           x="0 7.2280002 10.842 18.07">0.75</tspan></text>
<text
         id="text318"
         style="font-variant:normal;font-weight:normal;font-size:13px;font-family:Helvetica;-inkscape-font-specification:Helvetica;writing-mode:lr-tb;fill:#4d4d4d;fill-opacity:1;fill-rule:nonzero;stroke:none"
         transform="matrix(1,0,0,-1,473.52,32.37)"><tspan
           id="tspan316"
           y="0"
           x="0 7.2280002 10.842 18.07">0.90</tspan></text>
<text
         id="text322"
         style="font-variant:normal;font-weight:normal;font-size:13px;font-family:Helvetica;-inkscape-font-specification:Helvetica;writing-mode:lr-tb;fill:#4d4d4d;fill-opacity:1;fill-rule:nonzero;stroke:none"
         transform="matrix(1,0,0,-1,519.09,32.37)"><tspan
           id="tspan320"
           y="0"
           x="0 7.2280002 10.842 18.07">1.00</tspan></text>
</g><g
       id="g324" /><g
       id="g326" /><g
       id="g328" /><g
       id="g330" /><g
       id="g332" /><g
       id="g334"><text
         id="text338"
         style="font-variant:normal;font-weight:normal;font-size:17px;font-family:Helvetica;-inkscape-font-specification:Helvetica;writing-mode:lr-tb;fill:#000000;fill-opacity:1;fill-rule:nonzero;stroke:none"
         transform="matrix(1,0,0,-1,251.23,14.78)"><tspan
           id="tspan336"
           y="0"
           x="0 9.4519997 14.178 24.106001 28.832001 40.171001 49.623001 59.075001 67.574997 71.348999 76.074997 79.848999 88.348999 92.123001 96.848999">1 − Specificity</tspan></text>
</g><g
       id="g340" /><g
       id="g342"><text
         id="text346"
         style="font-variant:normal;font-weight:normal;font-size:17px;font-family:Helvetica;-inkscape-font-specification:Helvetica;writing-mode:lr-tb;fill:#000000;fill-opacity:1;fill-rule:nonzero;stroke:none"
         transform="matrix(0,1,1,0,17.69,258.99)"><tspan
           id="tspan344"
           y="0"
           x="0 11.339 20.791 30.243 38.743 42.516998 47.243 51.016998 59.516998 63.291 68.016998">Sensitivity</tspan></text>
</g><g
       id="g348" /><g
       id="g350" /><g
       id="g352" /><g
       id="g354" /><g
       id="g356" /><g
       id="g358" /><g
       id="g360" /><g
       id="g362"><path
         id="path364"
         style="fill:#ffffff;fill-opacity:1;fill-rule:nonzero;stroke:none"
         d="m 334.21,150.01 h 139.88 v 93.98 H 334.21 Z" /></g><g
       id="g366" /><g
       id="g368" /><g
       id="g370" /><g
       id="g372"><text
         id="text376"
         style="font-variant:normal;font-weight:normal;font-size:20px;font-family:Helvetica;-inkscape-font-specification:Helvetica;writing-mode:lr-tb;fill:#000000;fill-opacity:1;fill-rule:nonzero;stroke:none"
         transform="matrix(1,0,0,-1,339.69,222.83)"><tspan
           id="tspan374"
           y="0"
           x="0 16.66 27.780001 33.34 44.459999 55.580002">Method</tspan></text>
</g><g
       id="g378" /><g
       id="g380" /><g
       id="g382"><path
         id="path384"
         style="fill:#ffffff;fill-opacity:1;fill-rule:nonzero;stroke:none"
         d="m 339.69,192.93 h 57.6 v 18.72 h -57.6 z" /></g><g
       id="g386" /><g
       id="g388"><path
         id="path390"
         style="fill:none;stroke:#b79f00;stroke-width:4.26999998;stroke-linecap:butt;stroke-linejoin:round;stroke-miterlimit:10;stroke-dasharray:none;stroke-opacity:1"
         d="m 345.45,202.29 h 46.08" /></g><g
       id="g392" /><g
       id="g394"><path
         id="path396"
         style="fill:#ffffff;fill-opacity:1;fill-rule:nonzero;stroke:none"
         d="m 339.69,174.21 h 57.6 v 18.72 h -57.6 z" /></g><g
       id="g398" /><g
       id="g400"><path
         id="path402"
         style="fill:none;stroke:#f8766d;stroke-width:4.26999998;stroke-linecap:butt;stroke-linejoin:round;stroke-miterlimit:10;stroke-dasharray:8.54, 8.54;stroke-dashoffset:0;stroke-opacity:1"
         d="m 345.45,183.57 h 46.08" /></g><g
       id="g404" /><g
       id="g406"><path
         id="path408"
         style="fill:#ffffff;fill-opacity:1;fill-rule:nonzero;stroke:none"
         d="m 339.69,155.49 h 57.6 v 18.72 h -57.6 z" /></g><g
       id="g410" /><g
       id="g412"><path
         id="path414"
         style="fill:none;stroke:#619cff;stroke-width:4.26999998;stroke-linecap:butt;stroke-linejoin:round;stroke-miterlimit:10;stroke-dasharray:17.07, 8.54;stroke-dashoffset:0;stroke-opacity:1"
         d="m 345.45,164.85 h 46.08" /></g><g
       id="g416" /><g
       id="g418" /><g
       id="g420" /><g
       id="g422"><text
         id="text426"
         style="font-variant:normal;font-weight:normal;font-size:14px;font-family:Helvetica;-inkscape-font-specification:Helvetica;writing-mode:lr-tb;fill:#000000;fill-opacity:1;fill-rule:nonzero;stroke:none"
         transform="matrix(1,0,0,-1,407.15,197.26)"><tspan
           id="tspan424"
           y="0"
           x="0 10.108 18.284 26.837999 35.014 46.675999 54.459999">C+T−max</tspan></text>
</g><g
       id="g428" /><g
       id="g430" /><g
       id="g432" /><g
       id="g434" /><g
       id="g436"><text
         id="text440"
         style="font-variant:normal;font-weight:normal;font-size:14px;font-family:Helvetica;-inkscape-font-specification:Helvetica;writing-mode:lr-tb;fill:#000000;fill-opacity:1;fill-rule:nonzero;stroke:none"
         transform="matrix(1,0,0,-1,407.15,178.54)"><tspan
           id="tspan438"
           y="0"
           x="0 9.3380003 17.122">PLR</tspan></text>
</g><g
       id="g442" /><g
       id="g444" /><g
       id="g446" /><g
       id="g448" /><g
       id="g450"><text
         id="text454"
         style="font-variant:normal;font-weight:normal;font-size:14px;font-family:Helvetica;-inkscape-font-specification:Helvetica;writing-mode:lr-tb;fill:#000000;fill-opacity:1;fill-rule:nonzero;stroke:none"
         transform="matrix(1,0,0,-1,407.15,159.82)"><tspan
           id="tspan452"
           y="0"
           x="0 9.3380003 17.122 27.23">PLR3</tspan></text>
</g><g
       id="g456" /><g
       id="g458" /><g
       id="g460" /><g
       id="g462" /><g
       id="g464" /><g
       id="g466" /><g
       id="g468" /><g
       id="g470" /><g
       id="g472" /><g
       id="g474" /><g
       id="g476" /><g
       id="g478" /><g
       id="g480" /></g></svg>